# xmcd
#
# Track frame offsets:
#	150
#	15880
#	26992
#	36368
#	48925
#	63958
#	78103
#	90581
#	103235
#	116784
#	131863
#	155341
#	169485
#	184893
#	198697
#	210281
#	222992
#	243602
#	253698
#	265242
#	282297
#	293050
#	302835
#
# Disc length: 4176 seconds
#
# Revision: 1
# Processed by: cddbd v1.5.2PL0 Copyright (c) Steve Scherf et al.
# Submitted via: EZCDAudioConverter 5.0.1.1
#
DISCID=56104e17
DTITLE=Pelle Miljoona - Johanna-vuodet 1979-1981 cd2
DYEAR=2014
DGENRE=Pop/Rock
TTITLE0=Pelle Miljoona 1980 - Stadi by Night [Live]
TTITLE1=Pelle Miljoona 1980 - Näkymä Avenuelle [Live]
TTITLE2=Pelle Miljoona 1980 - Tiina on niin nuori [Live]
TTITLE3=Pelle Miljoona 1980 - Lanka palaa [Live]
TTITLE4=Pelle Miljoona 1980 - Hyvä fiilis [Live]
TTITLE5=Pelle Miljoona 1980 - Rakastava voima [Live]
TTITLE6=Pelle Miljoona 1980 - Garageland [Live]
TTITLE7=Pelle Miljoona 1980 - My Generation [Live]
TTITLE8=Pelle Miljoona OY - Olen kaunis [Single Version]
TTITLE9=Pelle Miljoona OY - Viesti (teille kovikset)
TTITLE10=Pelle Miljoona OY - Moottoritie on kuuma
TTITLE11=Pelle Miljoona OY - Vapaus on suuri vankila
TTITLE12=Pelle Miljoona OY - Meille kävi näin
TTITLE13=Pelle Miljoona OY - Koska sydän sanoi niin
TTITLE14=Pelle Miljoona OY - Kovat kundit
TTITLE15=Pelle Miljoona OY - Olen kaunis
TTITLE16=Pelle Miljoona OY - Juokse villi lapsi
TTITLE17=Pelle Miljoona OY - Nuoret rakastavaiset
TTITLE18=Pelle Miljoona OY - Älä äiti itke
TTITLE19=Pelle Miljoona OY - Tänä yönä vien sut pois
TTITLE20=Pelle Miljoona OY - Elämän pyörä
TTITLE21=Pelle Miljoona OY - Moottoritie
TTITLE22=Pelle Miljoona OY - Hyvää yötä maailma
EXTD=
EXTT0=
EXTT1=
EXTT2=
EXTT3=
EXTT4=
EXTT5=
EXTT6=
EXTT7=
EXTT8=
EXTT9=
EXTT10=
EXTT11=
EXTT12=
EXTT13=
EXTT14=
EXTT15=
EXTT16=
EXTT17=
EXTT18=
EXTT19=
EXTT20=
EXTT21=
EXTT22=
PLAYORDER=
